<?xml version="1.0" encoding="utf-8"?>
<!-- Generator: Adobe Illustrator 18.0.0, SVG Export Plug-In . SVG Version: 6.00 Build 0)  -->
<svg version="1.2" baseProfile="tiny" xmlns="http://www.w3.org/2000/svg" xmlns:xlink="http://www.w3.org/1999/xlink" x="0px"
	 y="0px" viewBox="0 0 952 965" xml:space="preserve">
<g id="Background">
</g>
<g id="Objects">
	<polygon fill-rule="evenodd" fill="#EDB163" points="244.4,779.1 365.5,633.8 175.3,407.1 179.9,353.7 364.6,369.9 697.5,235.7 
		961.4,550.2 962.2,1014.6 441.5,1014 	"/>
	<path fill-rule="evenodd" fill="#33B59B" d="M237.4,377.4l38.5,3.4c10.2,0.9,14.9,2.7,16.9,20.1c9.3,81.4,78.9,148.9,169.8,156.9
		c91.2,8,172.4-46.5,194.7-125.7c3.8-13.6,12.7-16.8,18.5-16.3l40,3.5c11.1,1,19.4,10.9,18.4,22l-16.4,186.9
		c-1,11.1-10.9,19.4-22,18.4l-478.4-41.9c-11.1-1-19.4-10.9-18.4-22l16.4-186.9C216.4,384.7,226.3,376.4,237.4,377.4z"/>
	<path fill-rule="evenodd" fill="#33B59B" d="M278.3,262.4c128.2,11.2,288.2,25.2,417,36.5c9.7,0.8,16.9,9.5,16.1,19.1L697.2,481
		c-0.8,9.7-9.5,16.9-19.1,16.1l-417-36.5c-9.7-0.8-16.9-9.5-16.1-19.1l14.3-162.9C260,268.8,268.7,261.5,278.3,262.4z"/>
	<path fill-rule="evenodd" fill="#115447" d="M286.4,275.4c119.8,10.5,278.4,24.4,398.8,34.9c9,0.8,15.8,8.8,15,17.9l-13.3,152.2
		c-0.8,9-8.8,15.8-17.9,15l-398.8-34.9c-9-0.8-15.8-8.8-15-17.9l13.3-152.2C269.3,281.4,277.4,274.6,286.4,275.4z"/>
	
		<rect x="193.8" y="366.2" transform="matrix(-0.9962 -8.715564e-002 8.715564e-002 -0.9962 918.2421 824.2299)" fill-rule="evenodd" fill="#454545" width="566.6" height="51.8"/>
	
		<rect x="275.8" y="217.3" transform="matrix(-0.9962 -8.715564e-002 8.715564e-002 -0.9962 932.0297 719.4987)" fill-rule="evenodd" fill="#FFFFFF" width="411.9" height="244.2"/>
	<polygon fill-rule="evenodd" fill="#115447" points="734.2,440.5 717.8,628.1 704.3,673.4 447.8,726.8 205.4,630.5 199.1,582.7 
		215.5,395.2 	"/>
	<path fill-rule="evenodd" fill="#A6B3B0" d="M432.8,414.2l79.9,7l113,51.9c-30,48.3-92.6,78.5-161.9,72.4
		c-71.6-6.3-129.4-49.4-148.8-104.7L432.8,414.2z"/>
	<path fill-rule="evenodd" fill="#33B59B" d="M702.5,679.5l-41.1,101.7c-18.8,46.5-51,52.1-68,50.6l-306-26.8
		c-22.3-2-49.2-19-58.2-61.6l-23.9-112.8c-2.3-10.9,2.9-16.9,16.8-15.7l469.2,41.1C703.1,656.9,707.6,666.9,702.5,679.5z"/>
	<path fill-rule="evenodd" fill="#1E806C" d="M294.3,782.7c-25.5-2.2-31.7-6.3-39.3-37.7l-22.6-93.5c-1.9-8,2.1-12.7,11.4-11.9
		c140,12.2,280,24.5,420,36.7c9.3,0.8,12.5,6.1,9.2,13.7l-38.5,88.2c-12.9,29.6-23.3,32.2-45.2,30.3L294.3,782.7z"/>
	<path fill-rule="evenodd" fill="#454545" d="M298.9,783.1c-12.5-1.1-34.4-4.9-36.9-29.9l-7.3-71.8c-0.6-6.4,1.6-9.9,9-9.3
		L638.6,705c7.4,0.6,9,4.5,7.3,10.7l-19.6,69.4c-6.8,24.2-29.3,24.1-41.6,23L298.9,783.1z"/>
	<path fill-rule="evenodd" fill="#33B59B" d="M236.9,383l38.5,3.4c10.2,0.9,14.9,2.7,16.9,20.1c9.3,81.4,79.4,143.3,170.3,151.2
		c91.2,8,171.9-40.9,194.2-120.1c3.8-13.6,12.7-16.8,18.5-16.3l40,3.5c11.1,1,19.4,10.9,18.4,22l-15.9,181.3
		c-1,11.1-10.9,19.4-22,18.4l-478.4-41.9c-11.1-1-19.4-10.9-18.4-22l15.9-181.3C215.9,390.3,225.8,382,236.9,383z"/>
	<path fill-rule="evenodd" fill="#1E806C" d="M276.3,386.4c9.6,0.9,14.1,3.1,16,20.1c9.3,81.4,79.4,143.3,170.3,151.2
		c91.2,8,171.9-40.9,194.2-120.1c3.8-13.6,12.7-16.8,18.5-16.3l0.6,0.1c-15,97.6-108.3,162.2-214.7,152.8
		C354.8,564.9,274.1,485.2,276.3,386.4z"/>
	<path fill-rule="evenodd" fill="#115447" d="M176.6,391.8c4.7,0.4,9.5-10.8,10.7-25c1.2-14.2-1.6-26.1-6.2-26.5
		c-4.7-0.4-9.5,10.8-10.7,25C169.2,379.4,171.9,391.4,176.6,391.8z"/>
	
		<rect x="178.8" y="325.4" transform="matrix(-0.9962 -8.715564e-002 8.715564e-002 -0.9962 341.1008 748.2502)" fill-rule="evenodd" fill="#33B59B" width="16.1" height="82.6"/>
	<path fill-rule="evenodd" fill="#115447" d="M773.1,443.9c4.7,0.4,9.5-10.8,10.7-25c1.2-14.2-1.6-26.1-6.2-26.5
		c-4.7-0.4-9.5,10.8-10.7,25C765.6,431.6,768.4,443.5,773.1,443.9z"/>
	
		<rect x="759.3" y="376.2" transform="matrix(-0.9962 -8.715564e-002 8.715564e-002 -0.9962 1495.3815 900.2142)" fill-rule="evenodd" fill="#33B59B" width="16.1" height="82.6"/>
	
		<line fill-rule="evenodd" fill="none" stroke="#808F8C" stroke-width="5.9552" stroke-miterlimit="22.9256" x1="194.9" y1="367.4" x2="759.3" y2="416.8"/>
	<g>
		
			<line fill-rule="evenodd" fill="none" stroke="#808F8C" stroke-width="5.9552" stroke-miterlimit="22.9256" x1="315.7" y1="361.3" x2="312.8" y2="394.3"/>
		
			<line fill-rule="evenodd" fill="none" stroke="#808F8C" stroke-width="5.9552" stroke-miterlimit="22.9256" x1="641.4" y1="389.8" x2="638.5" y2="422.8"/>
	</g>
	<g>
		<path fill-rule="evenodd" fill="#D8E6E3" d="M290.5,680.4l13.1,1.2c2.4,0.2,4.1,2.3,3.9,4.7l-1,10.9c-0.2,2.4-2.3,4.1-4.7,3.9
			l-13.1-1.2c-2.4-0.2-4.1-2.3-3.9-4.7l1-10.9C286,682,288.1,680.2,290.5,680.4z"/>
		<path fill-rule="evenodd" fill="#D8E6E3" d="M274.1,704.5l13.1,1.2c2.4,0.2,4.1,2.3,3.9,4.7l-1,10.9c-0.2,2.4-2.3,4.1-4.7,3.9
			l-13.1-1.2c-2.4-0.2-4.1-2.3-3.9-4.7l1-10.9C269.7,706,271.8,704.3,274.1,704.5z"/>
		<path fill-rule="evenodd" fill="#D8E6E3" d="M286,731l13.1,1.2c2.4,0.2,4.1,2.3,3.9,4.7l-1,10.9c-0.2,2.4-2.3,4.1-4.7,3.9
			l-13.1-1.2c-2.4-0.2-4.1-2.3-3.9-4.7l1-10.9C281.6,732.5,283.7,730.8,286,731z"/>
		<path fill-rule="evenodd" fill="#D8E6E3" d="M318.4,682.9l13.1,1.2c2.4,0.2,4.1,2.3,3.9,4.7l-1,10.9c-0.2,2.4-2.3,4.1-4.7,3.9
			l-13.1-1.2c-2.4-0.2-4.1-2.3-3.9-4.7l1-10.9C314,684.4,316.1,682.7,318.4,682.9z"/>
		<path fill-rule="evenodd" fill="#D8E6E3" d="M302.1,706.9l13.1,1.2c2.4,0.2,4.1,2.3,3.9,4.7l-1,10.9c-0.2,2.4-2.3,4.1-4.7,3.9
			l-13.1-1.2c-2.4-0.2-4.1-2.3-3.9-4.7l1-10.9C297.7,708.5,299.7,706.7,302.1,706.9z"/>
		<path fill-rule="evenodd" fill="#D8E6E3" d="M314,733.4l13.1,1.2c2.4,0.2,4.1,2.3,3.9,4.7l-1,10.9c-0.2,2.4-2.3,4.1-4.7,3.9
			l-13.1-1.2c-2.4-0.2-4.1-2.3-3.9-4.7l1-10.9C309.5,735,311.6,733.2,314,733.4z"/>
		<path fill-rule="evenodd" fill="#D8E6E3" d="M297.7,757.5l13.1,1.2c2.4,0.2,4.1,2.3,3.9,4.7l-1,10.9c-0.2,2.4-2.3,4.1-4.7,3.9
			L296,777c-2.4-0.2-4.1-2.3-3.9-4.7l1-10.9C293.2,759,295.3,757.3,297.7,757.5z"/>
		<path fill-rule="evenodd" fill="#D8E6E3" d="M346.4,685.3l13.1,1.2c2.4,0.2,4.1,2.3,3.9,4.7l-1,10.9c-0.2,2.4-2.3,4.1-4.7,3.9
			l-13.1-1.2c-2.4-0.2-4.1-2.3-3.9-4.7l1-10.9C341.9,686.9,344,685.1,346.4,685.3z"/>
		<path fill-rule="evenodd" fill="#D8E6E3" d="M330.1,709.4l13.1,1.2c2.4,0.2,4.1,2.3,3.9,4.7l-1,10.9c-0.2,2.4-2.3,4.1-4.7,3.9
			l-13.1-1.2c-2.4-0.2-4.1-2.3-3.9-4.7l1-10.9C325.6,710.9,327.7,709.2,330.1,709.4z"/>
		<path fill-rule="evenodd" fill="#D8E6E3" d="M342,735.9l13.1,1.2c2.4,0.2,4.1,2.3,3.9,4.7l-1,10.9c-0.2,2.4-2.3,4.1-4.7,3.9
			l-13.1-1.2c-2.4-0.2-4.1-2.3-3.9-4.7l1-10.9C337.5,737.4,339.6,735.7,342,735.9z"/>
		<path fill-rule="evenodd" fill="#D8E6E3" d="M374.3,687.8l13.1,1.2c2.4,0.2,4.1,2.3,3.9,4.7l-1,10.9c-0.2,2.4-2.3,4.1-4.7,3.9
			l-13.1-1.2c-2.4-0.2-4.1-2.3-3.9-4.7l1-10.9C369.9,689.3,372,687.6,374.3,687.8z"/>
		<path fill-rule="evenodd" fill="#D8E6E3" d="M358,711.8l13.1,1.2c2.4,0.2,4.1,2.3,3.9,4.7l-1,10.9c-0.2,2.4-2.3,4.1-4.7,3.9
			l-13.1-1.2c-2.4-0.2-4.1-2.3-3.9-4.7l1-10.9C353.6,713.4,355.7,711.6,358,711.8z"/>
		<path fill-rule="evenodd" fill="#D8E6E3" d="M369.9,738.3l13.1,1.2c2.4,0.2,4.1,2.3,3.9,4.7l-1,10.9c-0.2,2.4-2.3,4.1-4.7,3.9
			l-13.1-1.2c-2.4-0.2-4.1-2.3-3.9-4.7l1-10.9C365.5,739.9,367.6,738.1,369.9,738.3z"/>
		<path fill-rule="evenodd" fill="#D8E6E3" d="M402.3,690.2l13.1,1.2c2.4,0.2,4.1,2.3,3.9,4.7l-1,10.9c-0.2,2.4-2.3,4.1-4.7,3.9
			l-13.1-1.2c-2.4-0.2-4.1-2.3-3.9-4.7l1-10.9C397.8,691.8,399.9,690,402.3,690.2z"/>
		<path fill-rule="evenodd" fill="#D8E6E3" d="M386,714.3l13.1,1.2c2.4,0.2,4.1,2.3,3.9,4.7l-1,10.9c-0.2,2.4-2.3,4.1-4.7,3.9
			l-13.1-1.2c-2.4-0.2-4.1-2.3-3.9-4.7l1-10.9C381.5,715.8,383.6,714,386,714.3z"/>
		<path fill-rule="evenodd" fill="#D8E6E3" d="M397.9,740.8l13.1,1.2c2.4,0.2,4.1,2.3,3.9,4.7l-1,10.9c-0.2,2.4-2.3,4.1-4.7,3.9
			l-13.1-1.2c-2.4-0.2-4.1-2.3-3.9-4.7l1-10.9C393.4,742.3,395.5,740.6,397.9,740.8z"/>
		<path fill-rule="evenodd" fill="#D8E6E3" d="M430.2,692.7l13.1,1.2c2.4,0.2,4.1,2.3,3.9,4.7l-1,10.9c-0.2,2.4-2.3,4.1-4.7,3.9
			l-13.1-1.2c-2.4-0.2-4.1-2.3-3.9-4.7l1-10.9C425.8,694.2,427.9,692.5,430.2,692.7z"/>
		<path fill-rule="evenodd" fill="#D8E6E3" d="M413.9,716.7l13.1,1.2c2.4,0.2,4.1,2.3,3.9,4.7l-1,10.9c-0.2,2.4-2.3,4.1-4.7,3.9
			l-13.1-1.2c-2.4-0.2-4.1-2.3-3.9-4.7l1-10.9C409.5,718.3,411.6,716.5,413.9,716.7z"/>
		<path fill-rule="evenodd" fill="#D8E6E3" d="M425.8,743.2l13.1,1.2c2.4,0.2,4.1,2.3,3.9,4.7l-1,10.9c-0.2,2.4-2.3,4.1-4.7,3.9
			l-13.1-1.2c-2.4-0.2-4.1-2.3-3.9-4.7l1-10.9C421.4,744.8,423.5,743,425.8,743.2z"/>
		<path fill-rule="evenodd" fill="#D8E6E3" d="M458.2,695.1l13.1,1.2c2.4,0.2,4.1,2.3,3.9,4.7l-1,10.9c-0.2,2.4-2.3,4.1-4.7,3.9
			l-13.1-1.2c-2.4-0.2-4.1-2.3-3.9-4.7l1-10.9C453.7,696.7,455.8,694.9,458.2,695.1z"/>
		<path fill-rule="evenodd" fill="#D8E6E3" d="M441.9,719.1l13.1,1.2c2.4,0.2,4.1,2.3,3.9,4.7l-1,10.9c-0.2,2.4-2.3,4.1-4.7,3.9
			l-13.1-1.2c-2.4-0.2-4.1-2.3-3.9-4.7l1-10.9C437.4,720.7,439.5,718.9,441.9,719.1z"/>
		<path fill-rule="evenodd" fill="#D8E6E3" d="M453.8,745.7l13.1,1.2c2.4,0.2,4.1,2.3,3.9,4.7l-1,10.9c-0.2,2.4-2.3,4.1-4.7,3.9
			l-13.1-1.2c-2.4-0.2-4.1-2.3-3.9-4.7l1-10.9C449.3,747.2,451.4,745.4,453.8,745.7z"/>
		<path fill-rule="evenodd" fill="#D8E6E3" d="M486.1,697.6l13.1,1.2c2.4,0.2,4.1,2.3,3.9,4.7l-1,10.9c-0.2,2.4-2.3,4.1-4.7,3.9
			l-13.1-1.2c-2.4-0.2-4.1-2.3-3.9-4.7l1-10.9C481.7,699.1,483.8,697.3,486.1,697.6z"/>
		<path fill-rule="evenodd" fill="#D8E6E3" d="M469.8,721.6l13.1,1.2c2.4,0.2,4.1,2.3,3.9,4.7l-1,10.9c-0.2,2.4-2.3,4.1-4.7,3.9
			l-13.1-1.2c-2.4-0.2-4.1-2.3-3.9-4.7l1-10.9C465.4,723.1,467.5,721.4,469.8,721.6z"/>
		<path fill-rule="evenodd" fill="#D8E6E3" d="M481.7,748.1l13.1,1.2c2.4,0.2,4.1,2.3,3.9,4.7l-1,10.9c-0.2,2.4-2.3,4.1-4.7,3.9
			l-13.1-1.2c-2.4-0.2-4.1-2.3-3.9-4.7l1-10.9C477.3,749.6,479.4,747.9,481.7,748.1z"/>
		<path fill-rule="evenodd" fill="#D8E6E3" d="M514.1,700l13.1,1.2c2.4,0.2,4.1,2.3,3.9,4.7l-1,10.9c-0.2,2.4-2.3,4.1-4.7,3.9
			l-13.1-1.2c-2.4-0.2-4.1-2.3-3.9-4.7l1-10.9C509.7,701.6,511.7,699.8,514.1,700z"/>
		<path fill-rule="evenodd" fill="#D8E6E3" d="M497.8,724l13.1,1.2c2.4,0.2,4.1,2.3,3.9,4.7l-1,10.9c-0.2,2.4-2.3,4.1-4.7,3.9
			l-13.1-1.2c-2.4-0.2-4.1-2.3-3.9-4.7l1-10.9C493.3,725.6,495.4,723.8,497.8,724z"/>
		<path fill-rule="evenodd" fill="#D8E6E3" d="M509.7,750.5l13.1,1.2c2.4,0.2,4.1,2.3,3.9,4.7l-1,10.9c-0.2,2.4-2.3,4.1-4.7,3.9
			L508,770c-2.4-0.2-4.1-2.3-3.9-4.7l1-10.9C505.2,752.1,507.3,750.3,509.7,750.5z"/>
		<path fill-rule="evenodd" fill="#D8E6E3" d="M542.1,702.4l13.1,1.2c2.4,0.2,4.1,2.3,3.9,4.7l-1,10.9c-0.2,2.4-2.3,4.1-4.7,3.9
			l-13.1-1.2c-2.4-0.2-4.1-2.3-3.9-4.7l1-10.9C537.6,704,539.7,702.2,542.1,702.4z"/>
		<path fill-rule="evenodd" fill="#D8E6E3" d="M525.7,726.5l13.1,1.2c2.4,0.2,4.1,2.3,3.9,4.7l-1,10.9c-0.2,2.4-2.3,4.1-4.7,3.9
			L524,746c-2.4-0.2-4.1-2.3-3.9-4.7l1-10.9C521.3,728,523.4,726.3,525.7,726.5z"/>
		<path fill-rule="evenodd" fill="#D8E6E3" d="M537.6,753l13.1,1.2c2.4,0.2,4.1,2.3,3.9,4.7l-1,10.9c-0.2,2.4-2.3,4.1-4.7,3.9
			l-13.1-1.2c-2.4-0.2-4.1-2.3-3.9-4.7l1-10.9C533.2,754.5,535.3,752.8,537.6,753z"/>
		<path fill-rule="evenodd" fill="#D8E6E3" d="M570,704.9l13.1,1.2c2.4,0.2,4.1,2.3,3.9,4.7l-1,10.9c-0.2,2.4-2.3,4.1-4.7,3.9
			l-13.1-1.2c-2.4-0.2-4.1-2.3-3.9-4.7l1-10.9C565.6,706.4,567.7,704.7,570,704.9z"/>
		<path fill-rule="evenodd" fill="#D8E6E3" d="M553.7,728.9l13.1,1.2c2.4,0.2,4.1,2.3,3.9,4.7l-1,10.9c-0.2,2.4-2.3,4.1-4.7,3.9
			l-13.1-1.2c-2.4-0.2-4.1-2.3-3.9-4.7l1-10.9C549.2,730.5,551.3,728.7,553.7,728.9z"/>
		<path fill-rule="evenodd" fill="#D8E6E3" d="M565.6,755.4l13.1,1.2c2.4,0.2,4.1,2.3,3.9,4.7l-1,10.9c-0.2,2.4-2.3,4.1-4.7,3.9
			l-13.1-1.2c-2.4-0.2-4.1-2.3-3.9-4.7l1-10.9C561.1,757,563.2,755.2,565.6,755.4z"/>
		<path fill-rule="evenodd" fill="#D8E6E3" d="M325.6,759.9l236.8,20.7c2.4,0.2,4.1,2.3,3.9,4.7l-1,10.9c-0.2,2.4-2.3,4.1-4.7,3.9
			l-236.8-20.7c-2.4-0.2-4.1-2.3-3.9-4.7l1-10.9C321.2,761.5,323.3,759.7,325.6,759.9z"/>
		<path fill-rule="evenodd" fill="#D8E6E3" d="M598,707.3l13.1,1.2c2.4,0.2,4.1,2.3,3.9,4.7l-1,10.9c-0.2,2.4-2.3,4.1-4.7,3.9
			l-13.1-1.2c-2.4-0.2-4.1-2.3-3.9-4.7l1-10.9C593.5,708.9,595.6,707.1,598,707.3z"/>
		<path fill-rule="evenodd" fill="#D8E6E3" d="M581.6,731.4l13.1,1.2c2.4,0.2,4.1,2.3,3.9,4.7l-1,10.9c-0.2,2.4-2.3,4.1-4.7,3.9
			l-13.1-1.2c-2.4-0.2-4.1-2.3-3.9-4.7l1-10.9C577.2,732.9,579.3,731.2,581.6,731.4z"/>
		<path fill-rule="evenodd" fill="#D8E6E3" d="M593.5,757.9l13.1,1.2c2.4,0.2,4.1,2.3,3.9,4.7l-1,10.9c-0.2,2.4-2.3,4.1-4.7,3.9
			l-13.1-1.2c-2.4-0.2-4.1-2.3-3.9-4.7l1-10.9C589.1,759.4,591.2,757.7,593.5,757.9z"/>
		<path fill-rule="evenodd" fill="#D8E6E3" d="M577.2,781.9l13.1,1.2c2.4,0.2,4.1,2.3,3.9,4.7l-1,10.9c-0.2,2.4-2.3,4.1-4.7,3.9
			l-13.1-1.2c-2.4-0.2-4.1-2.3-3.9-4.7l1-10.9C572.8,783.5,574.9,781.7,577.2,781.9z"/>
		<path fill-rule="evenodd" fill="#D8E6E3" d="M609.6,733.8l13.1,1.2c2.4,0.2,4.1,2.3,3.9,4.7l-1,10.9c-0.2,2.4-2.3,4.1-4.7,3.9
			l-13.1-1.2c-2.4-0.2-4.1-2.3-3.9-4.7l1-10.9C605.2,735.4,607.2,733.6,609.6,733.8z"/>
	</g>
	<path fill-rule="evenodd" fill="#808F8C" d="M603.6,463c-25.5,41.2-78.9,66.9-138,61.8c-61.1-5.3-110.4-42.1-126.9-89.3l94.1-21.3
		l79.9,7L603.6,463z"/>
	<path fill-rule="evenodd" fill="#115447" d="M535.2,431.5c-11.8,19.1-36.6,31-63.9,28.6c-28.3-2.5-51.1-19.5-58.8-41.3l0.6-6.3
		l122.8,10.7L535.2,431.5z"/>
	<path fill-rule="evenodd" fill="#A6B3B0" d="M535.2,431.5c-11.8,19.1-36.6,31-63.9,28.6c-28.3-2.5-51.1-19.5-58.8-41.3l11.3-2.6
		c6.3,18,25.1,32,48.3,34c22.5,2,42.9-7.8,52.6-23.5L535.2,431.5z"/>
	<g>
		<path fill="#D8E6E3" d="M425.5,420.4l-106.1,31.4c-0.2-0.5-0.4-0.9-0.6-1.4L424.9,419C425.1,419.5,425.3,419.9,425.5,420.4z"/>
		<path fill="#D8E6E3" d="M427.1,423.5l-102.9,38c-0.2-0.4-0.5-0.9-0.7-1.3l102.9-38C426.6,422.6,426.9,423.1,427.1,423.5z"/>
		<path fill="#D8E6E3" d="M429,426.4l-99.2,44.2c-0.3-0.4-0.5-0.8-0.8-1.3l99.1-44.2C428.4,425.6,428.7,426,429,426.4z"/>
		<path fill="#D8E6E3" d="M431,429.2l-95,50c-0.3-0.4-0.6-0.8-0.9-1.2l95-50C430.4,428.4,430.7,428.8,431,429.2z"/>
		<path fill="#D8E6E3" d="M433.2,431.8l-90.5,55.5c-0.3-0.4-0.7-0.7-1-1.1l90.5-55.5C432.5,431.1,432.9,431.4,433.2,431.8z"/>
		<path fill="#D8E6E3" d="M435.6,434.2l-85.7,60.6c-0.4-0.4-0.7-0.7-1.1-1.1l85.7-60.6C434.9,433.5,435.2,433.9,435.6,434.2z"/>
		<path fill="#D8E6E3" d="M438.1,436.5l-80.7,65.4c-0.4-0.3-0.8-0.7-1.1-1l80.7-65.4C437.3,435.8,437.7,436.1,438.1,436.5z"/>
		<path fill="#D8E6E3" d="M440.6,438.5l-75.4,69.7c-0.4-0.3-0.8-0.6-1.2-0.9l75.4-69.7C439.8,437.9,440.2,438.2,440.6,438.5z"/>
		<path fill="#D8E6E3" d="M443.3,440.4l-69.9,73.7c-0.4-0.3-0.8-0.6-1.2-0.8l69.9-73.7C442.5,439.8,442.9,440.1,443.3,440.4z"/>
		<path fill="#D8E6E3" d="M446,442.1l-64.3,77.3c-0.4-0.3-0.9-0.5-1.3-0.8l64.3-77.3C445.2,441.6,445.6,441.8,446,442.1z"/>
		<path fill="#D8E6E3" d="M448.8,443.6l-58.5,80.6c-0.4-0.2-0.9-0.5-1.3-0.7l58.5-80.6C447.9,443.1,448.4,443.4,448.8,443.6z"/>
		<path fill="#D8E6E3" d="M451.7,445L399,528.5c-0.5-0.2-0.9-0.4-1.4-0.6l52.7-83.5C450.7,444.6,451.2,444.8,451.7,445z"/>
		<path fill="#D8E6E3" d="M454.5,446.2l-46.7,86.1c-0.5-0.2-0.9-0.4-1.4-0.6l46.7-86.1C453.6,445.8,454.1,446,454.5,446.2z"/>
		<path fill="#D8E6E3" d="M457.4,447.2l-40.7,88.4c-0.5-0.2-0.9-0.3-1.4-0.5l40.7-88.4C456.5,446.9,457,447.1,457.4,447.2z"/>
		<path fill="#D8E6E3" d="M460.4,448.1l-34.6,90.4c-0.5-0.1-1-0.3-1.4-0.4l34.6-90.4C459.4,447.8,459.9,448,460.4,448.1z"/>
		<path fill="#D8E6E3" d="M463.3,448.8l-28.5,92c-0.5-0.1-1-0.2-1.4-0.4l28.5-92C462.3,448.6,462.8,448.7,463.3,448.8z"/>
		<path fill="#D8E6E3" d="M466.3,449.4l-22.4,93.4c-0.5-0.1-1-0.2-1.5-0.3l22.4-93.3C465.3,449.3,465.8,449.4,466.3,449.4z"/>
		<path fill="#D8E6E3" d="M469.3,449.9l-16.2,94.4c-0.5-0.1-1-0.1-1.5-0.2l16.2-94.4C468.3,449.8,468.8,449.8,469.3,449.9z"/>
		<path fill="#D8E6E3" d="M472.2,450.2l-9.9,95.2c-0.5,0-1-0.1-1.5-0.1l9.9-95.2c0.4,0,0.9,0.1,1.3,0.1L472.2,450.2z"/>
		<path fill="#D8E6E3" d="M475.2,450.4l-3.7,95.6c-0.5,0-1,0-1.5-0.1l3.7-95.6C474.3,450.4,474.7,450.4,475.2,450.4z"/>
		<path fill="#D8E6E3" d="M478.3,450.5l2.6,95.8c-0.5,0-1,0-1.5,0l-2.6-95.8C477.3,450.5,477.8,450.5,478.3,450.5z"/>
		<path fill="#D8E6E3" d="M481.3,450.4l8.9,95.7c-0.5,0-1,0-1.5,0.1l-8.9-95.7C480.3,450.4,480.8,450.4,481.3,450.4z"/>
		<path fill="#D8E6E3" d="M484.3,450.1l15.2,95.3c-0.5,0-1,0.1-1.5,0.1l-15.2-95.3C483.3,450.2,483.8,450.2,484.3,450.1z"/>
		<path fill="#D8E6E3" d="M487.3,449.8l21.5,94.6c-0.5,0.1-1,0.1-1.5,0.2L485.8,450C486.3,449.9,486.8,449.8,487.3,449.8z"/>
		<path fill="#D8E6E3" d="M490.3,449.2l27.8,93.6c-0.5,0.1-1,0.2-1.5,0.3l-27.8-93.6C489.4,449.4,489.9,449.3,490.3,449.2z"/>
		<path fill="#D8E6E3" d="M493.4,448.5l34.1,92.2c-0.5,0.1-1,0.2-1.5,0.4l-34.1-92.2C492.4,448.8,492.9,448.7,493.4,448.5z"/>
		<path fill="#D8E6E3" d="M496.4,447.7l40.4,90.6c-0.5,0.1-1,0.3-1.4,0.4l-40.4-90.5C495.4,448,495.9,447.8,496.4,447.7z"/>
		<path fill="#D8E6E3" d="M499.4,446.7l46.7,88.5c-0.5,0.2-0.9,0.3-1.4,0.5l-46.7-88.5C498.4,447,498.9,446.8,499.4,446.7z"/>
		<path fill="#D8E6E3" d="M502.3,445.5l52.9,86.1c-0.5,0.2-0.9,0.4-1.4,0.6L500.9,446C501.4,445.9,501.9,445.7,502.3,445.5z"/>
		<path fill="#D8E6E3" d="M505.2,444.1l59,83.3c-0.4,0.2-0.9,0.4-1.4,0.7l-59-83.3C504.3,444.5,504.8,444.3,505.2,444.1z"/>
		<path fill="#D8E6E3" d="M508.1,442.5l65,80.1c-0.4,0.2-0.9,0.5-1.3,0.7l-65-80.2C507.2,443,507.7,442.8,508.1,442.5z"/>
		<path fill="#D8E6E3" d="M510.9,440.8l70.9,76.6c-0.4,0.3-0.8,0.5-1.3,0.8l-70.9-76.6C510.1,441.3,510.5,441,510.9,440.8z"/>
		<path fill="#D8E6E3" d="M513.6,438.8l76.7,72.6c-0.4,0.3-0.8,0.6-1.2,0.9l-76.7-72.6C512.8,439.4,513.2,439.1,513.6,438.8z"/>
		<path fill="#D8E6E3" d="M516.2,436.7l82.2,68.2c-0.4,0.3-0.8,0.7-1.1,1l-82.2-68.2C515.5,437.3,515.9,437,516.2,436.7z"/>
		<path fill="#D8E6E3" d="M518.7,434.3l87.4,63.3c-0.4,0.4-0.7,0.7-1.1,1.1l-87.4-63.3C518,435,518.4,434.7,518.7,434.3z"/>
		<path fill="#D8E6E3" d="M521,431.7l92.3,58.1c-0.3,0.4-0.7,0.8-1,1.1L520,432.9C520.4,432.5,520.7,432.1,521,431.7z"/>
		<path fill="#D8E6E3" d="M523.2,429l96.9,52.4c-0.3,0.4-0.6,0.8-0.9,1.2l-96.9-52.4C522.6,429.8,522.9,429.4,523.2,429z"/>
		<path fill="#D8E6E3" d="M525.1,426.1l101,46.4c-0.3,0.4-0.5,0.8-0.8,1.3l-101-46.4C524.6,426.9,524.8,426.5,525.1,426.1z"/>
		<path fill="#D8E6E3" d="M424.1,417.1l-108.8,24.6c-0.2-0.5-0.4-0.9-0.5-1.4l108.8-24.6C423.7,416.2,423.9,416.7,424.1,417.1z"/>
	</g>
	<g>
		<path fill="#D8E6E3" d="M610.1,489.6l0.1-1.7l3.1,1.9c-0.3,0.4-0.7,0.8-1,1.1L610.1,489.6L610.1,489.6z M611.1,478.3l0.1-1.6
			l8.8,4.7c-0.3,0.4-0.6,0.8-0.9,1.2L611.1,478.3L611.1,478.3z M612.1,467.6l0.1-1.6l13.9,6.4c-0.3,0.4-0.5,0.8-0.8,1.3L612.1,467.6
			z M612.2,466.1l-0.1,1.6l-8.8-4.1c0.1-0.2,0.3-0.4,0.4-0.6l0.4-0.6L612.2,466.1L612.2,466.1z M611.3,476.7l-0.1,1.6l-10.6-5.7
			l0.1-1.6L611.3,476.7L611.3,476.7z M610.3,487.9l-0.1,1.7l-10.5-6.6l0.1-1.7L610.3,487.9L610.3,487.9z M597.6,505.5l0.1-1.2
			l0.7,0.6L597.6,505.5L597.6,505.5z M598.6,494l0.2-1.7l7.3,5.3c-0.4,0.4-0.7,0.7-1.1,1.1L598.6,494z M600.7,470.9l-0.1,1.6
			l-2.5-1.4c0.3-0.4,0.6-0.8,0.9-1.2L600.7,470.9L600.7,470.9z M599.8,481.3l-0.1,1.7l-7.4-4.7c0.3-0.4,0.7-0.8,1-1.1L599.8,481.3
			L599.8,481.3z M598.8,492.3l-0.2,1.7l-9.5-6.9l0.2-1.7L598.8,492.3L598.8,492.3z M597.7,504.3l-0.1,1.2l-0.4,0.3l-9.1-7.6l0.2-1.8
			L597.7,504.3L597.7,504.3z M587.1,510.4l0.2-1.9l3.1,2.9c-0.4,0.3-0.8,0.6-1.2,0.9L587.1,510.4z M589.2,485.4l-0.2,1.7l-3.1-2.3
			c0.4-0.4,0.7-0.7,1.1-1.1L589.2,485.4L589.2,485.4z M588.3,496.4l-0.2,1.8l-6.5-5.4l0.2-1.8L588.3,496.4L588.3,496.4z
			 M587.2,508.5l-0.2,1.9l-6.5-6.1l0.2-1.9L587.2,508.5L587.2,508.5z M579.5,516.9l0.2-2l2.2,2.4c-0.4,0.3-0.8,0.5-1.3,0.8
			L579.5,516.9z M581.7,491l-0.2,1.8l-2.3-1.9c0.4-0.3,0.8-0.7,1.1-1L581.7,491L581.7,491z M580.7,502.4l-0.2,1.9l-6.8-6.4l0.2-1.9
			L580.7,502.4L580.7,502.4z M579.6,515l-0.2,2l-6.7-7.3l0.2-2L579.6,515L579.6,515z M571.6,523.1l0.2-2.1l1.4,1.7
			c-0.4,0.2-0.9,0.5-1.3,0.7L571.6,523.1z M573.9,495.9l-0.2,1.9l-1.4-1.4c0.4-0.3,0.8-0.6,1.2-0.9L573.9,495.9L573.9,495.9z
			 M572.9,507.7l-0.2,2l-7-7.5l0.1-1.2l0.5-0.3L572.9,507.7L572.9,507.7z M571.8,520.9l-0.2,2.1l-6.9-8.5l0.2-2.1L571.8,520.9
			L571.8,520.9z M563.5,527.8l0.1-1.3l0.6,0.9L563.5,527.8z M565.9,501l-0.1,1.2l-0.7-0.7L565.9,501L565.9,501z M564.9,512.4
			l-0.2,2.1l-3.2-3.9l0.2-2.1L564.9,512.4L564.9,512.4z M563.6,526.5l-0.1,1.3l-0.6,0.3l-2.6-3.7l0.2-2.3L563.6,526.5z M561.7,508.5
			l-0.2,2.1l-3.8-4.7c0.4-0.2,0.9-0.5,1.3-0.7L561.7,508.5L561.7,508.5z M560.5,522.1l-0.2,2.3l-7.1-10l0.2-2.3L560.5,522.1
			L560.5,522.1z M551.9,529l0.2-2.5l3.1,5c-0.5,0.2-0.9,0.4-1.4,0.6L551.9,529z M553.4,512l-0.2,2.3l-3.1-4.4
			c0.5-0.2,0.9-0.4,1.4-0.7L553.4,512L553.4,512z M552.1,526.5l-0.2,2.5l-7.1-11.6l0.2-2.5L552.1,526.5L552.1,526.5z M543.4,533.3
			l0.2-2.7l2.4,4.6c-0.5,0.2-0.9,0.3-1.4,0.5L543.4,533.3z M545,514.9l-0.2,2.5l-2.5-4c0.5-0.2,0.9-0.4,1.4-0.6L545,514.9L545,514.9
			z M543.6,530.6l-0.2,2.7l-7.1-13.5l0.2-2.7L543.6,530.6L543.6,530.6z M534.7,537.3l0.3-3l1.8,4c-0.5,0.1-1,0.3-1.4,0.4
			L534.7,537.3z M536.5,517.1l-0.2,2.7l-1.8-3.5c0.5-0.2,0.9-0.3,1.4-0.5L536.5,517.1L536.5,517.1z M535,534.2l-7-15.7l-0.3,3
			l7,15.7L535,534.2L535,534.2z M526,541.1l0.3-3.5l1.2,3.1C527,540.9,526.5,541,526,541.1L526,541.1z M528,518.5l-0.3,3l-1.2-2.7
			C527,518.8,527.5,518.6,528,518.5L528,518.5L528,518.5z M526.3,537.6l-6.3-17l-0.7,0.2l-0.2,1.8l6.8,18.5L526.3,537.6L526.3,537.6
			z M517.4,543l0.2-2.1l0.6,1.9L517.4,543z M519.3,520.8l-0.2,1.8l-0.6-1.6C518.8,520.9,519.1,520.9,519.3,520.8L519.3,520.8z
			 M517.6,540.9l-0.2,2.1l-0.7,0.1l-6-20.3l0-0.1c0.5-0.1,0.9-0.2,1.4-0.3L517.6,540.9L517.6,540.9z M508.8,544.4l0-0.2L508.8,544.4
			L508.8,544.4z M510.7,522.7l0,0.1L510.7,522.7L510.7,522.7L510.7,522.7z M508.8,544.2l0,0.2c-0.5,0.1-1,0.1-1.4,0.2l-4.7-20.7
			c0.5-0.1,1-0.1,1.5-0.2L508.8,544.2L508.8,544.2z M415.7,535.3l0.1-1.2l8.4-18.2c0.5,0.2,0.9,0.3,1.4,0.5l-8.9,19.3L415.7,535.3
			L415.7,535.3z M417.5,514.4l0.1-1l0.4,0.2L417.5,514.4L417.5,514.4z M433.3,518.7l-7.6,19.7c-0.5-0.1-1-0.3-1.4-0.4l7.6-19.7
			C432.3,518.5,432.8,518.6,433.3,518.7L433.3,518.7z M441,520.8l-6.2,20.1c-0.5-0.1-1-0.2-1.4-0.4l6.2-20.1
			C440.1,520.5,440.5,520.6,441,520.8L441,520.8z M448.8,522.4l-4.9,20.4c-0.5-0.1-1-0.2-1.5-0.3l4.9-20.4
			C447.8,522.2,448.3,522.3,448.8,522.4L448.8,522.4z M456.6,523.7l-3.5,20.6c-0.5-0.1-1-0.1-1.5-0.2l3.5-20.6
			C455.6,523.6,456.1,523.6,456.6,523.7L456.6,523.7z M464.5,524.6l-2.2,20.8c-0.5,0-1-0.1-1.5-0.1l2.2-20.8
			C463.5,524.5,464,524.6,464.5,524.6L464.5,524.6z M472.4,525.2l-0.8,20.9c-0.5,0-1,0-1.5-0.1l0.8-20.9
			C471.4,525.1,471.9,525.2,472.4,525.2L472.4,525.2z M480.3,525.4l0.6,20.9c-0.5,0-1,0-1.5,0l-0.6-20.9
			C479.3,525.4,479.8,525.4,480.3,525.4L480.3,525.4z M488.2,525.2l1.9,20.9c-0.5,0-1,0-1.5,0.1l-1.9-20.9
			C487.2,525.2,487.7,525.2,488.2,525.2L488.2,525.2z M496.2,524.7l3.3,20.8c-0.5,0-1,0.1-1.5,0.1l-3.3-20.8
			C495.2,524.7,495.7,524.7,496.2,524.7z M417.6,513.3l-0.1,1l-9.7,17.9l-0.3-0.1l0.2-2.8l8.9-16.4
			C417,513.1,417.3,513.2,417.6,513.3L417.6,513.3z M415.8,534.1l-0.1,1.2l-0.4-0.1L415.8,534.1L415.8,534.1z M409.2,512.3l0.2-2.5
			c0.3,0.2,0.7,0.3,1,0.5L409.2,512.3z M409.4,509.8l-0.2,2.5l-9.8,15.5l0.3-3.2l9.4-14.9L409.4,509.8L409.4,509.8z M407.7,529.3
			l-0.2,2.8l-1.1-0.4L407.7,529.3L407.7,529.3z M401,509.4l2-2.8c-0.4-0.2-0.9-0.5-1.3-0.7l-0.5,0.6L401,509.4z M401.3,506.5
			l-0.3,2.9l-9.5,13.1l0.3-2.9L401.3,506.5L401.3,506.5z M399.7,524.6l-0.3,3.2l-0.4,0.7c-0.5-0.2-0.9-0.4-1.4-0.6L399.7,524.6
			L399.7,524.6z M393,505.9l2.8-3.3c-0.4-0.3-0.9-0.5-1.3-0.8l-1.3,1.5L393,505.9z M393.2,503.3l-0.2,2.6l-9.2,11.1l0.2-2.6
			L393.2,503.3L393.2,503.3z M391.8,519.6l-0.3,2.9l-1.3,1.7c-0.4-0.2-0.9-0.5-1.3-0.7L391.8,519.6L391.8,519.6z M385.1,501.7
			l0.2-2.4l2.1-2.2c0.4,0.3,0.8,0.6,1.2,0.8L385.1,501.7z M385.4,499.3l-0.2,2.4l-11.7,12.4c-0.3-0.2-0.6-0.4-1-0.7l0-0.5
			L385.4,499.3L385.4,499.3z M384,514.4l-3.6,4.3c0.4,0.3,0.9,0.5,1.3,0.8l2.1-2.5L384,514.4L384,514.4z M373.6,500.5l8.2-7.5
			c-0.4-0.3-0.8-0.6-1.2-0.9l-6.8,6.3L373.6,500.5L373.6,500.5z M374.7,487.8l0-0.5l0.3,0.2L374.7,487.8z M374.7,487.3l0,0.5
			l-8.4,6.8l0.2-2.1l7.4-6C374.1,486.8,374.4,487.1,374.7,487.3L374.7,487.3z M373.8,498.3l-0.2,2.2l-8.3,7.7l-0.1-0.1l0.2-1.9
			L373.8,498.3L373.8,498.3z M372.5,512.9l0,0.5l-0.3-0.2L372.5,512.9L372.5,512.9z M367.4,482.5l0.2-1.9c0.3,0.3,0.7,0.7,1,1
			L367.4,482.5z M367.5,480.6l-0.2,1.9l-8,5.7l0.2-1.9L367.5,480.6L367.5,480.6L367.5,480.6z M366.5,492.5l-0.2,2.1l-8.1,6.6
			l0.2-2.1L366.5,492.5L366.5,492.5z M365.3,506.2l-0.2,1.9c-0.4-0.3-0.7-0.5-1.1-0.8L365.3,506.2L365.3,506.2z M360.4,476.5
			l0.2-1.8l0.9-0.6c0.3,0.4,0.7,0.8,1,1.1L360.4,476.5z M360.5,474.6l-0.2,1.8l-7.6,4.7l0.2-1.8L360.5,474.6L360.5,474.6z
			 M359.5,486.2l-0.2,1.9l-7.7,5.4l0.2-1.9L359.5,486.2L359.5,486.2z M358.4,499.1l-0.2,2.1l-0.8,0.7c-0.4-0.3-0.8-0.7-1.1-1
			L358.4,499.1L358.4,499.1z M353.7,469.9l0.2-1.8l1.9-1c0.3,0.4,0.6,0.8,0.9,1.2L353.7,469.9z M353.9,468.1l-0.2,1.8l-11,5.8
			l0.2-1.8L353.9,468.1L353.9,468.1z M352.9,479.3l-0.2,1.8l-10.1,6.2c-0.3-0.3-0.6-0.7-0.9-1l0-0.2L352.9,479.3L352.9,479.3z
			 M351.8,491.6l-0.2,1.9l-1.8,1.3c-0.4-0.4-0.7-0.7-1.1-1.1L351.8,491.6L351.8,491.6z M343.7,464.4l0.1-1.7l6.8-3
			c0.3,0.4,0.5,0.8,0.8,1.3L343.7,464.4L343.7,464.4z M344.6,453.9l0.1-1.6l1.2-0.4c0.2,0.4,0.5,0.9,0.7,1.3L344.6,453.9z
			 M342.5,445l-9.1,2.7l0.1-1.6l8.3-2.5C342.1,444.1,342.3,444.5,342.5,445L342.5,445z M344.8,452.3l-0.1,1.6l-12.1,4.5l0.1-1.6
			L344.8,452.3L344.8,452.3z M343.9,462.7l-0.1,1.7l-12.2,5.4l0.1-1.7L343.9,462.7L343.9,462.7z M342.9,473.9l-0.2,1.8l-6.7,3.5
			c-0.3-0.4-0.6-0.8-0.9-1.2L342.9,473.9L342.9,473.9z M341.8,486.1l0,0.2l-0.1-0.1L341.8,486.1L341.8,486.1z M334.3,437.4l0.1-1.6
			l4.1-0.9l0.1,0.5c0.1,0.3,0.2,0.6,0.3,0.9L334.3,437.4z M333.5,447.7l-14.1,4.2c-0.2-0.5-0.4-0.9-0.6-1.4l14.8-4.4L333.5,447.7
			L333.5,447.7z M334.5,435.9l-0.1,1.6l-19.1,4.3c-0.2-0.5-0.4-0.9-0.5-1.4L334.5,435.9L334.5,435.9z M332.7,456.8l-0.1,1.6
			l-8.3,3.1c-0.2-0.4-0.5-0.9-0.7-1.3L332.7,456.8L332.7,456.8z M331.7,468.1l-0.1,1.7l-1.7,0.8c-0.3-0.4-0.5-0.8-0.8-1.3
			L331.7,468.1z"/>
		<path fill="none" stroke="#D8E6E3" stroke-width="1.4887" stroke-miterlimit="22.9256" d="M342.5,445l-23.2,6.9
			c-0.2-0.5-0.4-0.9-0.6-1.4l23.2-6.9C342.1,444.1,342.3,444.5,342.5,445L342.5,445z M346.7,453.2l-22.5,8.3
			c-0.2-0.4-0.5-0.9-0.7-1.3l22.5-8.3C346.2,452.3,346.5,452.7,346.7,453.2L346.7,453.2z M351.5,461l-21.6,9.6
			c-0.3-0.4-0.5-0.8-0.8-1.3l21.6-9.6C350.9,460.1,351.2,460.5,351.5,461L351.5,461z M356.7,468.3L336,479.2
			c-0.3-0.4-0.6-0.8-0.9-1.2l20.7-10.9C356.1,467.5,356.4,467.9,356.7,468.3L356.7,468.3z M362.5,475.2l-19.8,12.1
			c-0.3-0.4-0.7-0.7-1-1.1l19.8-12.1C361.8,474.4,362.1,474.8,362.5,475.2L362.5,475.2z M368.6,481.6l-18.7,13.2
			c-0.4-0.4-0.7-0.7-1.1-1.1l18.7-13.2C367.8,480.9,368.2,481.3,368.6,481.6L368.6,481.6z M375,487.5l-17.6,14.3
			c-0.4-0.3-0.8-0.7-1.1-1l17.6-14.3C374.2,486.9,374.6,487.2,375,487.5L375,487.5z M381.7,493l-16.5,15.2c-0.4-0.3-0.8-0.6-1.2-0.9
			l16.5-15.2C380.9,492.4,381.3,492.7,381.7,493L381.7,493z M388.7,498l-15.3,16.1c-0.4-0.3-0.8-0.6-1.2-0.8l15.3-16.1
			C387.8,497.4,388.2,497.7,388.7,498L388.7,498z M395.8,502.5l-14,16.9c-0.4-0.3-0.9-0.5-1.3-0.8l14-16.9
			C394.9,502,395.4,502.3,395.8,502.5L395.8,502.5z M403.1,506.6l-12.8,17.6c-0.4-0.2-0.9-0.5-1.3-0.7l12.8-17.6
			C402.2,506.2,402.6,506.4,403.1,506.6L403.1,506.6z M410.5,510.3L399,528.5c-0.5-0.2-0.9-0.4-1.4-0.6l11.5-18.2
			C409.6,509.8,410,510.1,410.5,510.3L410.5,510.3z M418,513.5l-10.2,18.8c-0.5-0.2-0.9-0.4-1.4-0.6l10.2-18.8
			C417.1,513.1,417.5,513.3,418,513.5L418,513.5z M425.6,516.3l-8.9,19.3c-0.5-0.2-0.9-0.3-1.4-0.5l8.9-19.3
			C424.7,516,425.1,516.2,425.6,516.3L425.6,516.3z M433.3,518.7l-7.6,19.7c-0.5-0.1-1-0.3-1.4-0.4l7.6-19.7
			C432.3,518.5,432.8,518.6,433.3,518.7L433.3,518.7z M441,520.8l-6.2,20.1c-0.5-0.1-1-0.2-1.4-0.4l6.2-20.1
			C440.1,520.5,440.5,520.6,441,520.8L441,520.8z M448.8,522.4l-4.9,20.4c-0.5-0.1-1-0.2-1.5-0.3l4.9-20.4
			C447.8,522.2,448.3,522.3,448.8,522.4L448.8,522.4z M456.6,523.7l-3.5,20.6c-0.5-0.1-1-0.1-1.5-0.2l3.5-20.6
			C455.6,523.6,456.1,523.6,456.6,523.7L456.6,523.7z M464.5,524.6l-2.2,20.8c-0.5,0-1-0.1-1.5-0.1l2.2-20.8
			C463.5,524.5,464,524.6,464.5,524.6L464.5,524.6z M472.4,525.2l-0.8,20.9c-0.5,0-1,0-1.5-0.1l0.8-20.9
			C471.4,525.1,471.9,525.2,472.4,525.2L472.4,525.2z M480.3,525.4l0.6,20.9c-0.5,0-1,0-1.5,0l-0.6-20.9
			C479.3,525.4,479.8,525.4,480.3,525.4L480.3,525.4z M488.2,525.2l1.9,20.9c-0.5,0-1,0-1.5,0.1l-1.9-20.9
			C487.2,525.2,487.7,525.2,488.2,525.2L488.2,525.2z M496.2,524.7l3.3,20.8c-0.5,0-1,0.1-1.5,0.1l-3.3-20.8
			C495.2,524.7,495.7,524.7,496.2,524.7L496.2,524.7z M504.1,523.7l4.7,20.7c-0.5,0.1-1,0.1-1.5,0.2l-4.7-20.7
			C503.1,523.9,503.6,523.8,504.1,523.7L504.1,523.7z M512.1,522.4l6.1,20.4c-0.5,0.1-1,0.2-1.5,0.3l-6.1-20.4
			C511.1,522.6,511.6,522.5,512.1,522.4L512.1,522.4z M520,520.6l7.5,20.1c-0.5,0.1-1,0.2-1.5,0.4l-7.4-20.1
			C519.1,520.9,519.5,520.8,520,520.6L520,520.6z M528,518.5l8.8,19.8c-0.5,0.1-1,0.3-1.4,0.4l-8.8-19.8
			C527,518.8,527.5,518.6,528,518.5L528,518.5z M535.8,515.9l10.2,19.3c-0.5,0.2-0.9,0.3-1.4,0.5l-10.2-19.3
			C534.9,516.2,535.4,516,535.8,515.9L535.8,515.9z M543.7,512.8l11.5,18.8c-0.5,0.2-0.9,0.4-1.4,0.6l-11.5-18.8
			C542.7,513.2,543.2,513,543.7,512.8L543.7,512.8z M551.4,509.2l12.9,18.2c-0.4,0.2-0.9,0.4-1.4,0.7L550,509.9
			C550.5,509.7,550.9,509.4,551.4,509.2L551.4,509.2z M559,505.2l14.2,17.5c-0.4,0.2-0.9,0.5-1.3,0.7l-14.2-17.5
			C558.1,505.7,558.5,505.4,559,505.2L559,505.2z M566.4,500.6l15.5,16.7c-0.4,0.3-0.8,0.5-1.3,0.8l-15.5-16.7
			C565.5,501.2,565.9,500.9,566.4,500.6L566.4,500.6z M573.6,495.5l16.7,15.8c-0.4,0.3-0.8,0.6-1.2,0.9l-16.7-15.8
			C572.8,496.2,573.2,495.8,573.6,495.5L573.6,495.5z M580.5,489.9l17.9,14.9c-0.4,0.3-0.8,0.7-1.1,1l-17.9-14.9
			C579.7,490.6,580.1,490.3,580.5,489.9L580.5,489.9z M587,483.8l19.1,13.8c-0.4,0.4-0.7,0.7-1.1,1.1L586,484.9
			C586.3,484.5,586.7,484.2,587,483.8L587,483.8z M593.2,477.1l20.2,12.7c-0.3,0.4-0.7,0.8-1,1.1l-20.2-12.7
			C592.5,477.9,592.9,477.5,593.2,477.1L593.2,477.1z M598.9,470l21.1,11.4c-0.3,0.4-0.6,0.8-0.9,1.2L598,471.2
			C598.3,470.8,598.6,470.4,598.9,470L598.9,470z M604,462.3l22.1,10.2c-0.3,0.4-0.5,0.8-0.8,1.3l-22-10.1c0.1-0.2,0.3-0.4,0.4-0.6
			L604,462.3L604,462.3z M339,436.4l-23.8,5.4c-0.2-0.5-0.4-0.9-0.5-1.4l23.8-5.4l0.1,0.5C338.8,435.8,338.9,436.1,339,436.4z"/>
	</g>
	<g>
		
			<rect x="452.7" y="410.8" transform="matrix(8.715580e-002 -0.9962 0.9962 8.715580e-002 14.6667 843.571)" fill="#808F8C" width="29.8" height="6"/>
		
			<rect x="467" y="412.1" transform="matrix(8.715580e-002 -0.9962 0.9962 8.715580e-002 26.4218 858.8906)" fill="#808F8C" width="29.8" height="6"/>
		
			<rect x="462.7" y="426.9" transform="matrix(8.715580e-002 -0.9962 0.9962 8.715580e-002 -3.8077 869.9164)" fill="#808F8C" width="20.2" height="20.2"/>
	</g>
</g>
</svg>
